<?xml version="1.0" encoding="UTF-8"?><svg id="Layer_1" xmlns="http://www.w3.org/2000/svg" viewBox="0 0 179 54"><defs><style>.cls-1{fill:#229bbd;}.cls-2{fill:#000;}.cls-3{fill:#2a3988;}.cls-4{fill:#14509b;}</style></defs><circle class="cls-4" cx="8.75311" cy="9.61721" r="8.07979"/><path class="cls-2" d="M8.75293,18.370117C3.926758,18.370117,0,14.443359,0,9.617188S3.926758.864258,8.75293.864258c4.82666,0,8.753418,3.926758,8.753418,8.75293s-3.926758,8.75293-8.753418,8.75293ZM8.75293,2.210938c-4.083984,0-7.40625,3.322266-7.40625,7.40625s3.322266,7.40625,7.40625,7.40625,7.406738-3.322266,7.406738-7.40625-3.322754-7.40625-7.406738-7.40625Z"/><circle class="cls-1" cx="19.3325" cy="15.8242" r="8.07979"/><path class="cls-2" d="M19.33252,24.577148c-4.826172,0-8.75293-3.926758-8.75293-8.75293s3.926758-8.75293,8.75293-8.75293,8.75293,3.926758,8.75293,8.75293-3.926758,8.75293-8.75293,8.75293ZM19.33252,8.417969c-4.083984,0-7.40625,3.322266-7.40625,7.40625s3.322266,7.40625,7.40625,7.40625,7.40625-3.322266,7.40625-7.40625-3.322266-7.40625-7.40625-7.40625Z"/><circle class="cls-3" cx="8.9521" cy="20.5186" r="8.07979"/><path class="cls-2" d="M8.952148,29.271973C4.125488,29.271973.19873,25.345215.19873,20.518555c0-4.826172,3.926758-8.75293,8.753418-8.75293,4.826172,0,8.75293,3.926758,8.75293,8.75293,0,4.82666-3.926758,8.753418-8.75293,8.753418ZM8.952148,13.112305c-4.083984,0-7.406738,3.322266-7.406738,7.40625s3.322754,7.406738,7.406738,7.406738,7.40625-3.322754,7.40625-7.406738-3.322266-7.40625-7.40625-7.40625Z"/><path class="cls-2" d="M40.500322,24.416745c-.577148.273438-1.728027.569336-3.111816.569336-3.455566,0-5.683105-2.216797-5.683105-5.638184,0-3.300781,2.254883-5.866211,6.132812-5.866211,1.029785,0,2.054688.224609,2.691895.50293l-.494629,2.096191c-.448242-.21875-1.116211-.431152-2.108398-.431152-2.125977,0-3.385254,1.554199-3.375977,3.574707,0,2.26123,1.485352,3.557617,3.385254,3.557617.95459,0,1.644531-.207031,2.188965-.435059l.375,2.069824Z"/><path class="cls-2" d="M48.532549,24.748288l-.190918-1.228027h-.066895c-.668457.870117-1.821777,1.477051-3.248535,1.477051-2.236816,0-3.475586-1.597656-3.475586-3.278809,0-2.781738,2.478516-4.189941,6.538574-4.173828v-.182617c0-.724121-.286621-1.929199-2.238281-1.921875-1.07959,0-2.212402.348145-2.963867.822754l-.552246-1.809082c.833008-.506348,2.260254-.978516,3.996094-.978516,3.535645,0,4.544922,2.229492,4.544922,4.647949v3.969238c0,1.002441.049805,1.975098.171387,2.655762h-2.514648ZM48.163408,19.349362c-1.966797-.026367-3.848145.388672-3.848145,2.067383,0,1.079102.708008,1.587402,1.588867,1.587402,1.112793,0,1.914062-.717773,2.181641-1.525391.05957-.193359.077637-.412598.077637-.605957v-1.523438Z"/><path class="cls-2" d="M53.538897,17.268796c0-1.476562-.030762-2.562012-.090332-3.544434h2.413574l.103516,2.095215h.078613c.542969-1.552734,1.828125-2.344238,3.017578-2.344238.271973,0,.431152.010742.653809.060547v2.625c-.238281-.049805-.480957-.079102-.816895-.079102-1.328125,0-2.249512.845703-2.499023,2.108887-.046875.246582-.071289.541016-.071289.840332v5.717285h-2.789551v-7.479492Z"/><path class="cls-2" d="M63.067705,20.007565c.074219,1.998047,1.620117,2.871094,3.404785,2.871094,1.282227,0,2.199707-.201172,3.041992-.510742l.412598,1.918457c-.943848.400391-2.252441.699707-3.852539.699707-3.579102,0-5.675293-2.211426-5.675293-5.589355,0-3.04248,1.845703-5.921387,5.391113-5.921387,3.583496,0,4.75,2.946289,4.75,5.361816,0,.518066-.044922.932617-.098633,1.17041h-7.374023ZM67.91585,18.064694c.012207-1.020996-.432129-2.686523-2.299316-2.686523-1.715332,0-2.429199,1.558594-2.553223,2.686523h4.852539Z"/><path class="cls-2" d="M72.96419,8.67114h1.970215v6.838379h.04541c.339355-.565918.837891-1.064453,1.449219-1.403809.588867-.339844,1.290527-.543457,2.038086-.543457,1.47168,0,3.803711.882812,3.803711,4.664551v6.521484h-1.969727v-6.294922c0-1.789062-.656738-3.260742-2.536133-3.260742-1.313477,0-2.30957.928223-2.671875,1.969727-.113281.317383-.158691.611816-.158691.974121v6.611816h-1.970215V8.67114Z"/><path class="cls-2" d="M95.473955,19.268308c0,4.053223-2.96582,5.729004-5.501953,5.729004-2.875977,0-5.208496-2.150879-5.208496-5.683594,0-3.668457,2.490723-5.751465,5.45752-5.751465,3.056641,0,5.25293,2.196289,5.25293,5.706055ZM86.779131,19.313718c0,2.196289,1.109375,4.188965,3.328613,4.188965,2.173828,0,3.351562-1.992676,3.351562-4.211426,0-1.902344-.883789-4.257324-3.351562-4.257324-2.445801,0-3.328613,2.33252-3.328613,4.279785Z"/><path class="cls-2" d="M97.627275,16.755124c0-1.132324-.045898-2.061035-.09082-2.943848h1.720703l.113281,1.743652h.044922c.612305-1.041504,1.630859-1.992676,3.464844-1.992676,1.495117,0,2.626953.905762,3.102539,2.173828h.044922c.339844-.611328.770508-1.086914,1.222656-1.426758.679688-.498047,1.381836-.74707,2.422852-.74707,1.449219,0,3.600586.928223,3.600586,4.732422v6.453613h-1.924805v-6.181641c0-2.128906-.791992-3.396973-2.400391-3.396973-1.131836,0-2.014648.837891-2.354492,1.789062-.09082.294434-.181641.656738-.181641,1.019043v6.770508h-1.924805v-6.566895c0-1.743652-.791992-3.011719-2.286133-3.011719-1.246094,0-2.151367.996582-2.491211,1.992676-.09082.294434-.135742.656738-.135742.974121v6.611816h-1.947266v-7.993164Z"/><path class="cls-2" d="M117.262041,19.630612c.044922,2.694824,1.743164,3.804199,3.758789,3.804199,1.426758,0,2.30957-.249023,3.03418-.565918l.339844,1.426758c-.679688.316895-1.902344.70166-3.645508.70166-3.374023,0-5.389648-2.241699-5.389648-5.524902,0-3.329102,1.947266-5.910156,5.163086-5.910156,3.554688,0,4.505859,3.125,4.505859,5.140137,0,.407715-.044922.724609-.09082.928223h-7.675781ZM123.103838,18.204343c.022461-1.245605-.520508-3.21582-2.762695-3.21582-2.014648,0-2.898438,1.834473-3.056641,3.21582h5.819336Z"/><path class="cls-2" d="M126.502275,23.593503c0-.860352.542969-1.449219,1.335938-1.449219.81543,0,1.335938.588867,1.335938,1.449219,0,.79248-.520508,1.403809-1.358398,1.403809-.770508,0-1.335938-.611328-1.313477-1.403809Z"/><path class="cls-2" d="M139.545244,24.340573c-.520508.271973-1.674805.656738-3.147461.656738-3.305664,0-5.457031-2.241699-5.457031-5.593262,0-3.373535,2.30957-5.841797,5.887695-5.841797,1.154297,0,2.21875.294434,2.762695.565918l-.453125,1.540039c-.475586-.271973-1.222656-.520996-2.30957-.520996-2.513672,0-3.87207,1.879395-3.87207,4.144043,0,2.536133,1.629883,4.098145,3.826172,4.098145,1.110352,0,1.857422-.293945,2.423828-.542969l.338867,1.494141Z"/><path class="cls-2" d="M151.322588,19.268308c0,4.053223-2.966797,5.729004-5.50293,5.729004-2.875977,0-5.208008-2.150879-5.208008-5.683594,0-3.668457,2.491211-5.751465,5.457031-5.751465,3.057617,0,5.253906,2.196289,5.253906,5.706055ZM142.627275,19.313718c0,2.196289,1.109375,4.188965,3.328125,4.188965,2.173828,0,3.351562-1.992676,3.351562-4.211426,0-1.902344-.882812-4.257324-3.351562-4.257324-2.445312,0-3.328125,2.33252-3.328125,4.279785Z"/><path class="cls-2" d="M152.569658,23.593503c0-.860352.542969-1.449219,1.335938-1.449219.814453,0,1.335938.588867,1.335938,1.449219,0,.79248-.521484,1.403809-1.358398,1.403809-.770508,0-1.336914-.611328-1.313477-1.403809Z"/><path class="cls-2" d="M165.296221,24.748288l-.113281-1.789062h-.045898c-.498047.837891-1.607422,2.038086-3.645508,2.038086-2.12793,0-3.758789-1.290527-3.758789-4.800293v-6.385742h1.993164v6.045898c0,2.128418.678711,3.509766,2.400391,3.509766,1.449219,0,2.376953-.996094,2.671875-1.811523.113281-.316895.180664-.702148.180664-1.041504v-6.702637h1.969727v7.948242c0,1.154785.045898,2.105469.09082,2.98877h-1.743164Z"/><path class="cls-2" d="M171.86458,18.815671h.044922c.272461-.385254.634766-.86084.951172-1.245605l3.238281-3.758789h2.400391l-4.234375,4.483398,4.823242,6.453613h-2.422852l-3.758789-5.275879-1.041992,1.154785v4.121094h-1.969727V8.67114h1.969727v10.144531Z"/><path class="cls-2" d="M67.041801,49.578999c-3.3148.023602-12.0429.169601-16.547001.273201-4.221199.0989-6.6134.183601-11.857899.4426-9.027401.4333-14.051401.616901-16.664103.593399-1.684599-.014099-1.807098-.009399-1.888699.1366-.2749.4991.152399.988899.870899.993599.2449,0,.2449.009403.108801.146-.299301.306103-.299301.843002,0,1.092503.3375.2967.968899.3297,5.5602.315598,2.446699-.009499,5.919399-.065998,7.721001-.136597,3.1679-.122402,5.429501-.183701,13.5126-.3862,2.120098-.056503,9.1689-.0989,15.9347-.103603,11.509396-.009399,12.151699-.014099,12.502796-.1507.503502-.202499.704903-.362598.704903-.5839,0-.146-.054398-.202499-.318398-.306099-.274902-.1036-1.537704-.127201-10.064301-.169498-11.553001-.066002-22.804001.1036-32.672302.480301-3.205999.127098-7.519699.225998-7.4163.169498.0354-.014099.865499-.089401,1.8398-.1507,6.741299-.480301,16.645-.8759,26.077999-1.050102,1.396103-.023598,4.0877-.0989,5.976501-.160099,1.888798-.065998,4.7682-.1507,6.403797-.202499,1.635704-.0471,4.283806-.122501,5.884003-.160099,3.388397-.0942,4.093201-.160202,4.210297-.376801.122406-.216599.073502-.452099-.136093-.579201-.152405-.0989-.7593-.122501-3.646904-.127201-1.905098-.009399-4.645699,0-6.098999.009502"/><path class="cls-2" d="M.252686,38.664074v-1.195312h6.767578v1.195312h-2.660156v7.335938h-1.470703v-7.335938H.252686Z"/><path class="cls-2" d="M7.740967,37.000011h1.423828v3.351562c.464844-.539062,1.052734-.808594,1.763672-.808594,1.351562,0,2.037109.771484,2.056641,2.314453v4.142578h-1.423828v-4.089844c0-.4375-.094727-.74707-.28418-.928711s-.467773-.272461-.834961-.272461c-.570312,0-.996094.253906-1.277344.761719v4.529297h-1.423828v-9Z"/><path class="cls-2" d="M13.940674,42.994152v-.175781c0-.632812.12207-1.198242.366211-1.696289s.586914-.885742,1.02832-1.163086.933594-.416016,1.476562-.416016c.863281,0,1.530273.275391,2.000977.826172s.706055,1.330078.706055,2.337891v.574219h-4.142578c.042969.523438.217773.9375.524414,1.242188s.692383.457031,1.157227.457031c.652344,0,1.183594-.263672,1.59375-.791016l.767578.732422c-.253906.378906-.592773.672852-1.016602.881836s-.899414.313477-1.426758.313477c-.902344,0-1.633789-.28418-2.194336-.852539s-.84082-1.325195-.84082-2.270508ZM15.399659,42.238293h2.712891v-.105469c-.03125-.476562-.158203-.836914-.380859-1.081055s-.53125-.366211-.925781-.366211c-.390625,0-.706055.136719-.946289.410156s-.393555.654297-.459961,1.142578Z"/><path class="cls-2" d="M23.070069,37.468761h1.757812v5.630859c0,.558594.133789.96582.401367,1.22168s.637695.383789,1.110352.383789c.988281,0,1.490234-.519531,1.505859-1.558594v-5.677734h1.763672v5.619141c0,.933594-.291992,1.671875-.875977,2.214844s-1.381836.814453-2.393555.814453c-.996094,0-1.787109-.263672-2.373047-.791016s-.884766-1.251953-.896484-2.173828v-5.683594Z"/><path class="cls-2" d="M30.810303,46.000011v-8.53125h1.757812v3.867188l.773438-1.060547,2.173828-2.806641h2.162109l-3.029297,3.791016,3.117188,4.740234h-2.091797l-2.191406-3.421875-.914062.984375v2.4375h-1.757812Z"/><path class="cls-2" d="M38.562256,40.087902l-.796875-.462891c.335938-.527344.509766-1.072266.521484-1.634766v-.990234h1.347656v.908203c0,.351562-.097656.732422-.292969,1.142578s-.455078.755859-.779297,1.037109Z"/><path class="cls-2" d="M40.267334,43.984386h1.605469c.015625.300781.126953.53125.333984.691406s.484375.240234.832031.240234c.324219,0,.569336-.061523.735352-.18457s.249023-.28418.249023-.483398c0-.207031-.102539-.370117-.307617-.489258s-.53418-.225586-.987305-.319336c-1.507812-.316406-2.261719-.957031-2.261719-1.921875,0-.5625.233398-1.032227.700195-1.40918s1.077148-.56543,1.831055-.56543c.804688,0,1.448242.189453,1.930664.568359s.723633.871094.723633,1.476562h-1.693359c0-.242188-.078125-.442383-.234375-.600586s-.400391-.237305-.732422-.237305c-.285156,0-.505859.064453-.662109.193359s-.234375.292969-.234375.492188c0,.1875.088867.338867.266602.454102s.477539.214844.899414.298828.777344.178711,1.066406.28418c.894531.328125,1.341797.896484,1.341797,1.705078,0,.578125-.248047,1.045898-.744141,1.40332s-1.136719.536133-1.921875.536133c-.53125,0-1.00293-.094727-1.415039-.28418s-.735352-.449219-.969727-.779297-.351562-.686523-.351562-1.069336Z"/><path class="cls-2" d="M51.078858,37.468761l3.427734,5.625v-5.625h1.751953v8.53125h-1.757812l-3.421875-5.613281v5.613281h-1.757812v-8.53125h1.757812Z"/><path class="cls-2" d="M57.178467,42.847668v-.076172c0-.628906.121094-1.189453.363281-1.681641s.59082-.873047,1.045898-1.142578.983398-.404297,1.584961-.404297c.855469,0,1.553711.261719,2.094727.785156s.842773,1.234375.905273,2.132812l.011719.433594c0,.972656-.271484,1.75293-.814453,2.34082s-1.271484.881836-2.185547.881836-1.643555-.292969-2.188477-.878906-.817383-1.382812-.817383-2.390625ZM59.21167,44.271496c.226562.320312.550781.480469.972656.480469.410156,0,.730469-.157227.960938-.47168s.345703-.817383.345703-1.508789c0-.589844-.115234-1.046875-.345703-1.371094s-.554688-.486328-.972656-.486328c-.414062,0-.734375.161133-.960938.483398s-.339844.821289-.339844,1.49707c0,.601562.113281,1.060547.339844,1.376953Z"/><path class="cls-2" d="M64.074952,45.16798c0-.269531.09082-.488281.272461-.65625s.40918-.251953.682617-.251953c.277344,0,.506836.083984.688477.251953s.272461.386719.272461.65625c0,.265625-.089844.481445-.269531.647461s-.410156.249023-.691406.249023c-.277344,0-.505859-.083008-.685547-.249023s-.269531-.381836-.269531-.647461Z"/><path class="cls-2" d="M71.2771,46.000011h-1.693359v-6.527344l-2.021484.626953v-1.376953l3.533203-1.265625h.181641v8.542969Z"/><path class="cls-2" d="M76.515381,41.394543c0-.804688.142578-1.513672.427734-2.126953s.694336-1.085938,1.227539-1.417969,1.149414-.498047,1.848633-.498047c.941406,0,1.699219.255859,2.273438.767578s.908203,1.234375,1.001953,2.167969h-1.476562c-.070312-.613281-.249023-1.055664-.536133-1.327148s-.708008-.407227-1.262695-.407227c-.644531,0-1.139648.235352-1.485352.706055s-.522461,1.161133-.530273,2.071289v.755859c0,.921875.165039,1.625.495117,2.109375s.813477.726562,1.450195.726562c.582031,0,1.019531-.130859,1.3125-.392578s.478516-.697266.556641-1.306641h1.476562c-.085938.910156-.421875,1.620117-1.007812,2.129883s-1.365234.764648-2.337891.764648c-.679688,0-1.27832-.161133-1.795898-.483398s-.916992-.780273-1.198242-1.374023-.427734-1.283203-.439453-2.068359v-.796875Z"/><path class="cls-2" d="M84.038819,44.224621c0-.675781.250977-1.194336.75293-1.555664s1.219727-.541992,2.15332-.541992h.873047v-.416016c0-.328125-.091797-.59082-.275391-.788086s-.462891-.295898-.837891-.295898c-.324219,0-.589844.081055-.796875.243164s-.310547.368164-.310547.618164h-1.423828c0-.347656.115234-.672852.345703-.975586s.543945-.540039.94043-.711914.838867-.257812,1.327148-.257812c.742188,0,1.333984.186523,1.775391.55957s.667969.897461.679688,1.573242v2.859375c0,.570312.080078,1.025391.240234,1.365234v.099609h-1.453125c-.0625-.121094-.117188-.318359-.164062-.591797-.453125.472656-1.007812.708984-1.664062.708984-.636719,0-1.15625-.181641-1.558594-.544922s-.603516-.8125-.603516-1.347656ZM85.462647,44.078136c0,.273438.09082.491211.272461.65332s.424805.243164.729492.243164c.28125,0,.545898-.068359.793945-.205078s.43457-.320312.55957-.550781v-1.195312h-.767578c-.527344,0-.923828.091797-1.189453.275391s-.398438.443359-.398438.779297Z"/><path class="cls-2" d="M91.850342,39.660168l.035156.708984c.34375-.550781.820312-.826172,1.429688-.826172.203125,0,.371094.027344.503906.082031l-.005859,1.335938c-.1875-.03125-.380859-.046875-.580078-.046875-.652344,0-1.091797.25-1.318359.75v4.335938h-1.423828v-6.339844h1.359375Z"/><path class="cls-2" d="M94.229248,42.994152v-.175781c0-.632812.12207-1.198242.366211-1.696289s.586914-.885742,1.02832-1.163086.933594-.416016,1.476562-.416016c.863281,0,1.530273.275391,2.000977.826172s.706055,1.330078.706055,2.337891v.574219h-4.142578c.042969.523438.217773.9375.524414,1.242188s.692383.457031,1.157227.457031c.652344,0,1.183594-.263672,1.59375-.791016l.767578.732422c-.253906.378906-.592773.672852-1.016602.881836s-.899414.313477-1.426758.313477c-.902344,0-1.633789-.28418-2.194336-.852539s-.84082-1.325195-.84082-2.270508ZM95.688233,42.238293h2.712891v-.105469c-.03125-.476562-.158203-.836914-.380859-1.081055s-.53125-.366211-.925781-.366211c-.390625,0-.706055.136719-.946289.410156s-.393555.654297-.459961,1.142578Z"/><path class="cls-2" d="M103.546631,46.000011v-8.53125h1.482422v3.550781h3.814453v-3.550781h1.476562v8.53125h-1.476562v-3.791016h-3.814453v3.791016h-1.482422Z"/><path class="cls-2" d="M111.427491,42.841808v-.070312c0-.621094.123047-1.180664.369141-1.678711s.591797-.880859,1.037109-1.148438.957031-.401367,1.535156-.401367c.855469,0,1.549805.275391,2.083008.826172s.821289,1.28125.864258,2.191406l.005859.333984c0,.625-.120117,1.183594-.360352,1.675781s-.583984.873047-1.03125,1.142578-.963867.404297-1.549805.404297c-.894531,0-1.610352-.297852-2.147461-.893555s-.805664-1.389648-.805664-2.381836ZM112.851319,42.894543c0,.652344.134766,1.163086.404297,1.532227s.644531.553711,1.125.553711.854492-.1875,1.12207-.5625.401367-.923828.401367-1.646484c0-.640625-.137695-1.148438-.413086-1.523438s-.649414-.5625-1.12207-.5625c-.464844,0-.833984.18457-1.107422.553711s-.410156.920898-.410156,1.655273Z"/><path class="cls-2" d="M119.624756,39.660168l.041016.662109c.445312-.519531,1.054688-.779297,1.828125-.779297.847656,0,1.427734.324219,1.740234.972656.460938-.648438,1.109375-.972656,1.945312-.972656.699219,0,1.219727.193359,1.561523.580078s.516602.957031.524414,1.710938v4.166016h-1.423828v-4.125c0-.402344-.087891-.697266-.263672-.884766s-.466797-.28125-.873047-.28125c-.324219,0-.588867.086914-.793945.260742s-.348633.401367-.430664.682617l.005859,4.347656h-1.423828v-4.171875c-.019531-.746094-.400391-1.119141-1.142578-1.119141-.570312,0-.974609.232422-1.212891.697266v4.59375h-1.423828v-6.339844h1.341797Z"/><path class="cls-2" d="M128.243897,42.994152v-.175781c0-.632812.12207-1.198242.366211-1.696289s.586914-.885742,1.02832-1.163086.933594-.416016,1.476562-.416016c.863281,0,1.530273.275391,2.000977.826172s.706055,1.330078.706055,2.337891v.574219h-4.142578c.042969.523438.217773.9375.524414,1.242188s.692383.457031,1.157227.457031c.652344,0,1.183594-.263672,1.59375-.791016l.767578.732422c-.253906.378906-.592773.672852-1.016602.881836s-.899414.313477-1.426758.313477c-.902344,0-1.633789-.28418-2.194336-.852539s-.84082-1.325195-.84082-2.270508ZM129.702881,42.238293h2.712891v-.105469c-.03125-.476562-.158203-.836914-.380859-1.081055s-.53125-.366211-.925781-.366211c-.390625,0-.706055.136719-.946289.410156s-.393555.654297-.459961,1.142578Z"/><path class="cls-2" d="M136.975342,37.468761h1.470703l1.324219,6.410156,1.628906-6.410156h1.242188l1.611328,6.421875,1.3125-6.421875h1.470703l-1.96875,8.53125h-1.417969l-1.623047-6.228516-1.658203,6.228516h-1.423828l-1.96875-8.53125Z"/><path class="cls-2" d="M147.49878,42.994152v-.175781c0-.632812.12207-1.198242.366211-1.696289s.586914-.885742,1.02832-1.163086.933594-.416016,1.476562-.416016c.863281,0,1.530273.275391,2.000977.826172s.706055,1.330078.706055,2.337891v.574219h-4.142578c.042969.523438.217773.9375.524414,1.242188s.692383.457031,1.157227.457031c.652344,0,1.183594-.263672,1.59375-.791016l.767578.732422c-.253906.378906-.592773.672852-1.016602.881836s-.899414.313477-1.426758.313477c-.902344,0-1.633789-.28418-2.194336-.852539s-.84082-1.325195-.84082-2.270508ZM148.957764,42.238293h2.712891v-.105469c-.03125-.476562-.158203-.836914-.380859-1.081055s-.53125-.366211-.925781-.366211c-.390625,0-.706055.136719-.946289.410156s-.393555.654297-.459961,1.142578Z"/><path class="cls-2" d="M153.938233,37.000011h1.423828v3.269531c.410156-.484375.962891-.726562,1.658203-.726562.773438,0,1.380859.287109,1.822266.861328s.662109,1.376953.662109,2.408203v.082031c0,.984375-.219727,1.767578-.65918,2.349609s-1.043945.873047-1.813477.873047c-.742188,0-1.320312-.267578-1.734375-.802734l-.070312.685547h-1.289062v-9ZM156.674561,44.957043c.445312,0,.789062-.166016,1.03125-.498047s.367188-.833984.375-1.505859v-.181641c0-.6875-.121094-1.203125-.363281-1.546875s-.59375-.515625-1.054688-.515625c-.617188,0-1.050781.269531-1.300781.808594v2.613281c.253906.550781.691406.826172,1.3125.826172Z"/><path class="cls-2" d="M161.549561,44.001965c.019531.335938.146484.594727.380859.776367s.544922.272461.931641.272461c.375,0,.660156-.071289.855469-.213867s.292969-.329102.292969-.55957c0-.253906-.104492-.447266-.313477-.580078s-.555664-.25-1.040039-.351562-.888672-.230469-1.212891-.386719c-.710938-.34375-1.066406-.841797-1.066406-1.494141,0-.546875.230469-1.003906.691406-1.371094s1.046875-.550781,1.757812-.550781c.757812,0,1.370117.1875,1.836914.5625s.700195.861328.700195,1.458984h-1.423828c0-.273438-.101562-.500977-.304688-.682617s-.472656-.272461-.808594-.272461c-.3125,0-.567383.072266-.764648.216797s-.295898.337891-.295898.580078c0,.21875.091797.388672.275391.509766s.554688.243164,1.113281.366211.99707.269531,1.31543.439453.554688.374023.708984.612305.231445.527344.231445.867188c0,.570312-.236328,1.032227-.708984,1.385742s-1.091797.530273-1.857422.530273c-.519531,0-.982422-.09375-1.388672-.28125s-.722656-.445312-.949219-.773438-.339844-.681641-.339844-1.060547h1.382812Z"/><path class="cls-2" d="M166.413819,38.013683c0-.21875.069336-.400391.208008-.544922s.336914-.216797.594727-.216797.457031.072266.597656.216797.210938.326172.210938.544922c0,.214844-.070312.393555-.210938.536133s-.339844.213867-.597656.213867-.456055-.071289-.594727-.213867-.208008-.321289-.208008-.536133ZM167.925538,39.660168v6.339844h-1.423828v-6.339844h1.423828Z"/><path class="cls-2" d="M168.552491,39.660168h1.042969v-1.541016h1.423828v1.541016h1.119141v1.054688h-1.119141v3.539062c0,.242188.047852.416992.143555.524414s.266602.161133.512695.161133c.164062,0,.330078-.019531.498047-.058594v1.101562c-.324219.089844-.636719.134766-.9375.134766-1.09375,0-1.640625-.603516-1.640625-1.810547v-3.591797h-1.042969v-1.054688Z"/><path class="cls-2" d="M172.741944,42.994152v-.175781c0-.632812.12207-1.198242.366211-1.696289s.586914-.885742,1.02832-1.163086.933594-.416016,1.476562-.416016c.863281,0,1.530273.275391,2.000977.826172s.706055,1.330078.706055,2.337891v.574219h-4.142578c.042969.523438.217773.9375.524414,1.242188s.692383.457031,1.157227.457031c.652344,0,1.183594-.263672,1.59375-.791016l.767578.732422c-.253906.378906-.592773.672852-1.016602.881836s-.899414.313477-1.426758.313477c-.902344,0-1.633789-.28418-2.194336-.852539s-.84082-1.325195-.84082-2.270508ZM174.200928,42.238293h2.712891v-.105469c-.03125-.476562-.158203-.836914-.380859-1.081055s-.53125-.366211-.925781-.366211c-.390625,0-.706055.136719-.946289.410156s-.393555.654297-.459961,1.142578Z"/></svg>